#!OML:ASF H:\IndianDance\Patient Classification 1\Patient 1\Session 1\dancer.ASF
:FULLY-SPECIFIED
:DEGREES
2683
root 10.654 14.7444 -5.36486 -177.045 -21.0497 -172.755
lowerback 12.7534 5.45795 -7.12145
upperback -8.95767 6.32789 4.48659
thorax -19.1978 4.04252 7.50608
lowerneck -10.3627 17.4789 12.4412
upperneck -5.80323 21.3176 -3.11072
head 1.498 10.1262 -1.73086
rclavicle 8.80865e-014 4.19436e-014
rhumerus -27.3734 23.7667 -11.8604
rradius 39.621
rwrist -53.081
rhand -16.2268 -3.95186
rfingers 7.12502
rthumb 9.98136 -33.6952
lclavicle 8.80865e-014 4.19436e-014
lhumerus 46.0953 38.4049 4.0109
lradius 68.3852
lwrist 33.0454
lhand -45.723 10.9802
lfingers 7.12502
lthumb -18.4792 40.1225
rfemur -24.7494 -21.1558 30.0289
rtibia 50.6226
rfoot -26.9658 -10.7845
rtoes 0.72757
lfemur -58.7134 27.3601 -10.5617
ltibia 61.6079
lfoot -2.80223 4.45651
ltoes -4.44174
2684
root 10.6249 14.7593 -5.38079 -177.113 -21.1376 -172.809
lowerback 12.6242 5.45164 -7.12625
upperback -9.03686 6.31345 4.46487
thorax -19.2101 4.03501 7.49484
lowerneck -10.2302 17.3989 12.5351
upperneck -6.18314 21.2044 -3.16785
head 1.35763 10.0491 -1.80129
rclavicle 4.38072e-014 -5.56597e-015
rhumerus -27.4284 23.7375 -12.1547
rradius 39.6529
rwrist -53.1486
rhand -16.2697 -3.91675
rfingers 7.12502
rthumb 9.93998 -33.6621
lclavicle 4.38072e-014 -5.56597e-015
lhumerus 45.8885 38.8161 3.31193
lradius 70.0777
lwrist 30.7124
lhand -46.6921 9.64614
lfingers 7.12502
lthumb -19.4113 38.6972
rfemur -24.3404 -20.9933 29.8123
rtibia 50.244
rfoot -26.8838 -11.0384
rtoes 0.82328
lfemur -57.7636 27.033 -10.2965
ltibia 58.2175
lfoot -3.51072 5.06035
ltoes -5.24819
2685
root 10.5915 14.7751 -5.39742 -177.203 -21.2186 -172.843
lowerback 12.4822 5.44545 -7.04939
upperback -9.11857 6.31534 4.44453
thorax -19.2074 4.02281 7.43402
lowerneck -10.1128 17.3093 12.6445
upperneck -6.49034 21.0792 -3.25307
head 1.24963 9.96932 -1.87803
rclavicle -9.03476e-014 5.1684e-015
rhumerus -27.513 23.8057 -12.4656
rradius 39.7072
rwrist -53.219
rhand -16.2944 -3.8998
rfingers 7.12502
rthumb 9.9161 -33.6463
lclavicle -9.03476e-014 5.1684e-015
lhumerus 45.5028 39.1164 2.60504
lradius 71.918
lwrist 28.4609
lhand -47.5476 8.8806
lfingers 7.12502
lthumb -20.2337 37.8467
rfemur -23.8826 -20.795 29.5919
rtibia 49.8277
rfoot -26.7784 -11.316
rtoes 0.897124
lfemur -56.6209 26.6188 -9.94307
ltibia 54.6785
lfoot -4.27051 5.81703
ltoes -6.23123
2686
root 10.5537 14.7926 -5.41484 -177.315 -21.2935 -172.854
lowerback 12.3232 5.43772 -6.89223
upperback -9.20285 6.33134 4.431
thorax -19.1875 4.00551 7.33214
lowerneck -10.0212 17.2218 12.7633
upperneck -6.71283 20.9562 -3.34994
head 1.1774 9.89459 -1.95276
rclavicle -8.39368e-014 -6.54002e-014
rhumerus -27.6115 23.9456 -12.7777
rradius 39.785
rwrist -53.2831
rhand -16.2915 -3.89313
rfingers 7.12502
rthumb 9.91889 -33.6395
lclavicle -8.39368e-014 -6.54002e-014
lhumerus 44.93 39.292 1.87383
lradius 73.9081
lwrist 26.5012
lhand -48.2885 8.35126
lfingers 7.12502
lthumb -20.9456 37.2404
rfemur -23.3708 -20.5673 29.3748
rtibia 49.3602
rfoot -26.6482 -11.6063
rtoes 0.9521
lfemur -55.2835 26.0953 -9.47857
ltibia 51.0096
lfoot -5.09205 6.76928
ltoes -7.17582
2687
root 10.5118 14.8116 -5.43317 -177.448 -21.3645 -172.841
lowerback 12.1459 5.42691 -6.65725
upperback -9.28894 6.35846 4.42478
thorax -19.1481 3.98214 7.19249
lowerneck -9.96442 17.1387 12.8723
upperneck -6.84402 20.839 -3.43878
head 1.13995 9.82756 -2.01595
rclavicle 5.3647e-014 2.8625e-014
rhumerus -27.7109 24.1187 -13.0797
rradius 39.8812
rwrist -53.3273
rhand -16.2642 -3.88628
rfingers 7.12502
rthumb 9.94526 -33.6313
lclavicle 5.3647e-014 2.8625e-014
lhumerus 44.1706 39.3356 1.10501
lradius 76.0437
lwrist 24.9742
lhand -48.9746 7.83069
lfingers 7.12502
lthumb -21.6046 36.6455
rfemur -22.8011 -20.3174 29.1595
rtibia 48.8353
rfoot -26.4982 -11.8948
rtoes 1.00517
lfemur -53.7515 25.4422 -8.89939
ltibia 47.2367
lfoot -5.97825 7.96409
ltoes -8.1619
2688
root 10.4658 14.8325 -5.4525 -177.593 -21.4298 -172.811
lowerback 11.9426 5.41156 -6.35555
upperback -9.37832 6.39169 4.42332
thorax -19.0861 3.95171 7.02055
lowerneck -9.9408 17.0702 12.9877
upperneck -6.88054 20.7391 -3.51463
head 1.13999 9.77382 -2.06719
rclavicle 5.81197e-014 2.34566e-014
rhumerus -27.7946 24.2684 -13.3675
rradius 39.9844
rwrist -53.3433
rhand -16.2187 -3.86973
rfingers 7.12502
rthumb 9.98919 -33.6127
lclavicle 5.81197e-014 2.34566e-014
lhumerus 43.2445 39.2333 0.302388
lradius 78.2935
lwrist 23.875
lhand -49.6342 7.06489
lfingers 7.12502
lthumb -22.238 35.8055
rfemur -22.1789 -20.0475 28.9432
rtibia 48.2506
rfoot -26.3264 -12.1814
rtoes 1.03112
lfemur -52.0333 24.6264 -8.19118
ltibia 43.3934
lfoot -6.94391 9.4342
ltoes -8.89311
2689
root 10.4158 14.8548 -5.47296 -177.75 -21.4871 -172.769
lowerback 11.715 5.39313 -5.99857
upperback -9.47147 6.42994 4.42618
thorax -19.0049 3.91547 6.82284
lowerneck -9.94337 17.0203 13.0971
upperneck -6.84041 20.6633 -3.55934
head 1.16704 9.73613 -2.1003
rclavicle 3.16068e-014 -2.46493e-014
rhumerus -27.8582 24.3726 -13.6374
rradius 40.094
rwrist -53.3413
rhand -16.1762 -3.84498
rfingers 7.12502
rthumb 10.0301 -33.586
lclavicle 3.16068e-014 -2.46493e-014
lhumerus 42.1682 38.977 -0.524538
lradius 80.6178
lwrist 23.0757
lhand -50.3009 5.96154
lfingers 7.12502
lthumb -22.8779 34.6245
rfemur -21.5077 -19.7625 28.7215
rtibia 47.6153
rfoot -26.1374 -12.4629
rtoes 1.01811
lfemur -50.1376 23.6145 -7.34346
ltibia 39.5258
lfoot -8.03659 11.2003
ltoes -9.10452
2690
root 10.3619 14.8784 -5.49469 -177.914 -21.5304 -172.724
lowerback 11.4563 5.37203 -5.59928
upperback -9.56632 6.47044 4.42962
thorax -18.8983 3.87359 6.60358
lowerneck -9.9477 16.9736 13.1767
upperneck -6.75422 20.5971 -3.56424
head 1.20216 9.70689 -2.11444
rclavicle 9.79014e-015 -4.94974e-014
rhumerus -27.8957 24.4163 -13.8947
rradius 40.2047
rwrist -53.3261
rhand -16.1508 -3.80815
rfingers 7.12502
rthumb 10.0547 -33.548
lclavicle 9.79014e-015 -4.94974e-014
lhumerus 40.9482 38.5655 -1.38665
lradius 82.9781
lwrist 22.3993
lhand -50.9559 4.61159
lfingers 7.12502
lthumb -23.5063 33.1954
rfemur -20.7958 -19.4629 28.4855
rtibia 46.9428
rfoot -25.9408 -12.7284
rtoes 0.986398
lfemur -48.0769 22.3631 -6.34889
ltibia 35.6877
lfoot -9.30608 13.2822
ltoes -8.66299
2691
root 10.3041 14.902 -5.51784 -178.077 -21.5512 -172.69
lowerback 11.1586 5.34913 -5.17443
upperback -9.65984 6.51027 4.42879
thorax -18.7581 3.82667 6.36797
lowerneck -9.94444 16.9415 13.2406
upperneck -6.65479 20.5532 -3.52663
head 1.23468 9.69009 -2.11165
rclavicle -8.92543e-014 -2.32578e-014
rhumerus -27.9049 24.4046 -14.1494
rradius 40.3169
rwrist -53.3089
rhand -16.1598 -3.76593
rfingers 7.12502
rthumb 10.046 -33.5062
lclavicle -8.92543e-014 -2.32578e-014
lhumerus 39.5812 37.9937 -2.29443
lradius 85.3464
lwrist 21.6343
lhand -51.6066 3.20406
lfingers 7.12502
lthumb -24.1303 31.7065
rfemur -20.0588 -19.1446 28.2238
rtibia 46.2563
rfoot -25.7422 -12.9833
rtoes 0.939921
lfemur -45.8794 20.8411 -5.22007
ltibia 31.9449
lfoot -10.8545 15.6651
ltoes -7.32714
2692
root 10.2426 14.9248 -5.54238 -178.236 -21.5436 -172.676
lowerback 10.8173 5.32574 -4.73809
upperback -9.74761 6.54808 4.42251
thorax -18.5776 3.77614 6.12338
lowerneck -9.93733 16.9199 13.2874
upperneck -6.54359 20.5255 -3.44594
head 1.26415 9.68266 -2.09186
rclavicle 1.2921e-013 2.82274e-014
rhumerus -27.8771 24.332 -14.4024
rradius 40.4169
rwrist -53.2673
rhand -16.182 -3.70565
rfingers 7.12502
rthumb 10.0246 -33.4469
lclavicle 1.2921e-013 2.82274e-014
lhumerus 38.0654 37.2669 -3.25502
lradius 87.7075
lwrist 20.6339
lhand -52.2428 2.0074
lfingers 7.12502
lthumb -24.7403 30.4275
rfemur -19.3114 -18.8049 27.9291
rtibia 45.58
rfoot -25.5463 -13.2331
rtoes 0.862655
lfemur -43.5728 18.982 -3.95686
ltibia 28.3696
lfoot -12.8246 18.3408
ltoes -5.02879
2693
root 10.1774 14.946 -5.56815 -178.388 -21.5012 -172.688
lowerback 10.432 5.30279 -4.30005
upperback -9.82692 6.58281 4.41071
thorax -18.3546 3.72322 5.87578
lowerneck -9.91014 16.8956 13.3085
upperneck -6.43549 20.4998 -3.32847
head 1.2818 9.6773 -2.05928
rclavicle 6.74874e-014 7.15625e-015
rhumerus -27.8096 24.2226 -14.6564
rradius 40.5029
rwrist -53.2006
rhand -16.2122 -3.62785
rfingers 7.12502
rthumb 9.99544 -33.3705
lclavicle 6.74874e-014 7.15625e-015
lhumerus 36.3883 36.3669 -4.2769
lradius 90.0629
lwrist 19.3773
lhand -52.8815 1.10522
lfingers 7.12502
lthumb -25.3523 29.44
rfemur -18.5689 -18.4375 27.597
rtibia 44.9404
rfoot -25.3606 -13.4814
rtoes 0.748059
lfemur -41.2035 16.7305 -2.57093
ltibia 25.0431
lfoot -15.4043 21.2494
ltoes -1.71154
2694
root 10.1088 14.9648 -5.59493 -178.53 -21.4156 -172.732
lowerback 10.0004 5.28561 -3.86598
upperback -9.89335 6.62015 4.38974
thorax -18.0837 3.67132 5.62268
lowerneck -9.8939 16.8763 13.3273
upperneck -6.30607 20.4791 -3.1817
head 1.30479 9.67538 -2.01524
rclavicle -1.10276e-013 -5.60573e-014
rhumerus -27.7176 24.1124 -14.9175
rradius 40.5872
rwrist -53.1253
rhand -16.2437 -3.53539
rfingers 7.12502
rthumb 9.96509 -33.2795
lclavicle -1.10276e-013 -5.60573e-014
lhumerus 34.5718 35.3019 -5.35065
lradius 92.4164
lwrist 17.9089
lhand -53.4771 0.572679
lfingers 7.12502
lthumb -25.9227 28.8253
rfemur -17.849 -18.0358 27.2247
rtibia 44.3625
rfoot -25.193 -13.7258
rtoes 0.606978
lfemur -38.8341 14.0459 -1.09292
ltibia 22.0503
lfoot -18.8018 24.2352
ltoes 2.7998
2695
root 10.0373 14.9806 -5.62228 -178.66 -21.2847 -172.806
lowerback 9.53116 5.27692 -3.44014
upperback -9.94815 6.6626 4.36101
thorax -17.774 3.62286 5.36743
lowerneck -9.89094 16.851 13.3355
upperneck -6.14542 20.4494 -3.00293
head 1.33477 9.67087 -1.95856
rclavicle -2.10712e-014 -4.96962e-014
rhumerus -27.602 24.0236 -15.1797
rradius 40.6665
rwrist -53.031
rhand -16.2624 -3.42738
rfingers 7.12502
rthumb 9.94704 -33.1724
lclavicle -2.10712e-014 -4.96962e-014
lhumerus 32.63 34.0531 -6.46344
lradius 94.769
lwrist 16.3093
lhand -54.0778 0.395269
lfingers 7.12502
lthumb -26.4978 28.5624
rfemur -17.1683 -17.5922 26.8162
rtibia 43.8697
rfoot -25.0443 -13.9768
rtoes 0.413497
lfemur -36.5482 10.9343 0.416882
ltibia 19.4796
lfoot -23.1137 27.0976
ltoes 8.17633
2696
root 9.96338 14.9928 -5.6497 -178.778 -21.1058 -172.911
lowerback 9.03599 5.28073 -3.02225
upperback -9.99392 6.71535 4.32532
thorax -17.4379 3.58071 5.10925
lowerneck -9.90875 16.8181 13.3375
upperneck -5.93272 20.4076 -2.79174
head 1.38043 9.66324 -1.88846
rclavicle -2.18663e-014 -2.8625e-014
rhumerus -27.4708 23.979 -15.4365
rradius 40.7458
rwrist -52.9246
rhand -16.2505 -3.30706
rfingers 7.12502
rthumb 9.95845 -33.0515
lclavicle -2.18663e-014 -2.8625e-014
lhumerus 30.6026 32.6095 -7.57788
lradius 97.0985
lwrist 14.6555
lhand -54.6506 0.197791
lfingers 7.12502
lthumb -27.046 28.2811
rfemur -16.5451 -17.1059 26.3772
rtibia 43.486
rfoot -24.92 -14.2271
rtoes 0.183503
lfemur -34.4332 7.51824 1.84492
ltibia 17.4027
lfoot -28.2106 29.5834
ltoes 13.8386
2697
root 9.88746 15.0011 -5.67669 -178.887 -20.8812 -173.035
lowerback 8.52555 5.29859 -2.60028
upperback -10.0313 6.78224 4.28167
thorax -17.0821 3.54538 4.83917
lowerneck -9.96933 16.7744 13.3105
upperneck -5.64689 20.3477 -2.51963
head 1.44618 9.65108 -1.79123
rclavicle -4.7112e-014 -1.63003e-014
rhumerus -27.3324 23.9918 -15.6874
rradius 40.8363
rwrist -52.8355
rhand -16.2306 -3.18991
rfingers 7.12502
rthumb 9.97764 -32.9334
lclavicle -4.7112e-014 -1.63003e-014
lhumerus 28.5261 30.9718 -8.66612
lradius 99.3679
lwrist 12.9474
lhand -55.2313 -0.190819
lfingers 7.12502
lthumb -27.6014 27.8049
rfemur -15.9926 -16.5895 25.9198
rtibia 43.2244
rfoot -24.8243 -14.461
rtoes -0.0300342
lfemur -32.56 4.09617 3.01757
ltibia 15.8627
lfoot -33.5359 31.542
ltoes 18.8201
